:SAMPLES-PER-SECOND 30
:FULLY-SPECIFIED
:DEGREES
163
root  5.678377752 37.80244542 -0.09142355773 -164.6950073 -80.01170349 162.3619995
lowerback  19.30209923 3.238739967 -1.560109973
upperback  7.242410183 3.516160011 1.80388999
thorax  -3.193020105 1.479990005 2.048140049
lowerneck  -3.72687006 8.465640068 0.4975570142
upperneck  9.552700043 11.5795002 -3.408699989
head  4.045209885 5.564229965 -0.6589969993
lclavicle  0 -9.442270133e-015 7.951389973e-016
lhumerus  9.907290459 -9.233880043 79.66320038
lradius  2.632574424e-031 -2.353379684e-031 138.2050018
lwrist  -1.059337512e-030 -0 1.423539996
lhand  -1.496451383e-031 -27.76390076 20.11240005
lfingers  90 7.125020027 -90
lthumb  89.89689403 5.08795885 91.16245106
rclavicle  0 -9.442270133e-015 7.951389973e-016
rhumerus  31.6718998 32.36149979 -71.36889648
rradius  -1.999949718e-031 2.910162394e-031 124.4980011
rwrist  7.062250077e-031 -1.765562519e-031 -8.076339722
rhand  -7.920061211e-032 -33.2840004 9.303460121
rfingers  -90 -7.125020027 -90
rthumb  -92.93752616 -24.25625642 -97.11982154
rfemur  -24.72929955 19.45459938 -2.332730055
rtibia  -0 0 55.98809814
rfoot  -5.024237792e-032 -21.02400017 0.2759720087
rtoes  5.373923086 19.29304026 -105.8922705
lfemur  -35.06219864 -0.411695987 -6.724460125
ltibia  -0 0 72.01460266
lfoot  -0 -3.501159906 10.64239979
ltoes  -4.250644065 -19.5611806 -102.515957
164
root  5.849244275 38.0006655 -0.005802666534 -165.0189819 -78.94200134 163.0859985
lowerback  19.93519974 3.397140026 -1.519629955
upperback  7.232130051 3.685539961 1.444470048
thorax  -3.511529922 1.561269999 1.580629945
lowerneck  -3.863100052 8.578780174 0.8800740242
upperneck  9.369110107 11.71990013 -3.587660074
head  4.051050186 5.643070221 -0.7688919902
lclavicle  0 -9.442270133e-015 7.951389973e-016
lhumerus  10.4399004 -9.267769814 79.00409698
lradius  2.641304918e-031 -2.343576832e-031 138.4179993
lwrist  -3.531125038e-031 -3.531125038e-031 1.374930024
lhand  -1.496451383e-031 -27.76390076 20.11240005
lfingers  90 7.125020027 -90
lthumb  89.89689403 5.08795885 91.16245106
rclavicle  0 -9.442270133e-015 7.951389973e-016
rhumerus  31.96380043 32.17309952 -71.34860229
rradius  -1.994257231e-031 2.914066254e-031 124.3860016
rwrist  7.062250077e-031 -1.765562519e-031 -8.059980392
rhand  -7.920061211e-032 -33.2840004 9.303460121
rfingers  -90 -7.125020027 -90
rthumb  -92.93752616 -24.25625642 -97.11982154
rfemur  -25.63389969 19.2241993 -3.224699974
rtibia  -0 0 54.93199921
rfoot  -4.68150959e-032 -19.46619987 2.125869989
rtoes  5.373923086 19.29304026 -105.8922705
lfemur  -35.62250137 0.2323540002 -7.547550201
ltibia  -0 0 70.81109619
lfoot  -0 -3.630530119 10.09329987
ltoes  -4.250644065 -19.5611806 -102.515957
165
root  5.999866621 38.18288788 0.05440088942 -165.8359985 -77.97399902 164.4359741
lowerback  20.30459976 3.536550045 -1.54508996
upperback  7.204629898 3.829790115 1.159919977
thorax  -3.718080044 1.630499959 1.242980003
lowerneck  -3.928240061 8.717069626 1.403480053
upperneck  9.044210434 11.88720036 -3.858340025
head  4.012460232 5.74022007 -0.9364029765
lclavicle  0 -9.442270133e-015 7.951389973e-016
lhumerus  10.95219994 -9.170399666 78.2594986
lradius  2.649917489e-031 -2.333834043e-031 138.6289978
lwrist  -1.412450015e-030 -0 1.595309973
lhand  -1.496451383e-031 -27.76390076 20.11240005
lfingers  90 7.125020027 -90
lthumb  89.89689403 5.08795885 91.16245106
rclavicle  0 -9.442270133e-015 7.951389973e-016
rhumerus  32.32590103 32.00170135 -71.3167038
rradius  -1.988811616e-031 2.917785529e-031 124.2789993
rwrist  1.412450015e-030 -1.765562519e-031 -7.802480221
rhand  -7.920061211e-032 -33.2840004 9.303460121
rfingers  -90 -7.125020027 -90
rthumb  -92.93752616 -24.25625642 -97.11982154
rfemur  -26.50419998 18.98570061 -3.802220106
rtibia  -0 0 53.86629868
rfoot  -4.646031374e-032 -18.18790054 3.249200106
rtoes  5.373923086 19.29304026 -105.8922705
lfemur  -36.26729965 0.7641440034 -8.108779907
ltibia  -0 0 69.51180267
lfoot  -0 -4.01872015 9.090760231
ltoes  -4.250644065 -19.5611806 -102.515957
166
root  6.133244357 38.36066779 0.1027433304 -166.2609863 -77.03500366 165.1669922
lowerback  20.66530037 3.664439917 -1.841160059
upperback  7.291069984 3.899689913 0.9965590239
thorax  -3.819669962 1.653519988 1.206359982
lowerneck  -3.971260071 8.861180305 1.563560009
upperneck  8.614339828 12.08090019 -4.102970123
head  3.905600071 5.841380119 -1.038100004
lclavicle  0 -9.442270133e-015 7.951389973e-016
lhumerus  11.45750046 -8.827130318 77.74569702
lradius  2.65691151e-031 -2.325868711e-031 138.8009949
lwrist  -1.059337512e-030 -0 1.948869944
lhand  -1.496451383e-031 -27.76390076 20.11240005
lfingers  90 7.125020027 -90
lthumb  89.89689403 5.08795885 91.16245106
rclavicle  0 -9.442270133e-015 7.951389973e-016
rhumerus  32.86370087 32.0177002 -71.23370361
rradius  -1.984021905e-031 2.921044525e-031 124.1849976
rwrist  7.062250077e-031 -0 -7.510280132
rhand  -7.920061211e-032 -33.2840004 9.303460121
rfingers  -90 -7.125020027 -90
rthumb  -92.93752616 -24.25625642 -97.11982154
rfemur  -26.99600029 18.83699989 -4.306950092
rtibia  -0 0 52.82220078
rfoot  -4.621965242e-032 -17.2567997 3.71284008
rtoes  5.373923086 19.29304026 -105.8922705
lfemur  -36.61199951 1.148769975 -8.772669792
ltibia  -0 0 68.11579895
lfoot  -0 -4.639589787 8.001449585
ltoes  -4.250644065 -19.5611806 -102.515957
